<?xml version="1.0" encoding="UTF-8"?> <svg xmlns="http://www.w3.org/2000/svg" xmlns:xlink="http://www.w3.org/1999/xlink" id="Layer_1" data-name="Layer 1" width="582" height="400" viewBox="0 0 582 400"><defs><style>.cls-1{fill:none;}.cls-2{clip-path:url(#clip-path);}.cls-3{fill:#f4f4f4;}.cls-4{fill:#39485a;}.cls-5{fill:#e2e4e8;stroke-width:0.22px;}.cls-10,.cls-5{stroke:#8d9ca9;stroke-linecap:round;stroke-linejoin:round;}.cls-6{fill:#02a3d6;}.cls-10,.cls-7{fill:#fff;}.cls-8{fill:#ff927d;}.cls-9{fill:#8090a2;opacity:0.5;isolation:isolate;}.cls-10{stroke-width:0.23px;}.cls-11{fill:#8d9ca9;}.cls-12{fill:#06b5d3;}.cls-13{fill:#3d8cbc;}.cls-14{fill:#ff7352;}.cls-15{fill:#c93a27;}.cls-16{fill:#dd4b2f;}</style><clipPath id="clip-path"><rect class="cls-1" width="582" height="400"></rect></clipPath></defs><title>RC_infographic</title><g class="cls-2"><rect class="cls-3" width="582" height="400"></rect></g><path class="cls-4" d="M491.61,360.72c0,6.29-7.7,13.25-13.2,10.51L249.06,254.34a20,20,0,0,1-10-16.37L234.28,34.5c0-6.29,9.24-10.38,14.78-7.63L481.6,139.6a20,20,0,0,1,10,16.37Z"></path><path class="cls-5" d="M486.62,364.16c0,6.28-4.47,9.15-10,6.39L244.08,257.82a20,20,0,0,1-10-16.37V36.71c0-6.28,4.46-9.13,10-6.37L476.61,143.06a20,20,0,0,1,10,16.37Z"></path><path id="B" class="cls-6" d="M291.69,87.72,249.62,66.93a2.57,2.57,0,0,1-1.23-2.14c0-.86.55-1.28,1.23-.93l42.07,20.79a2.59,2.59,0,0,1,1.25,2.16c0,.85-.56,1.26-1.23.92Z"></path><path class="cls-6" d="M291.69,98.16,249.62,77.37a2.6,2.6,0,0,1-1.23-2.16c0-.84.55-1.27,1.23-.92l42.07,20.79a2.57,2.57,0,0,1,1.25,2.16c0,.84-.56,1.26-1.23.92Z"></path><path id="C" class="cls-7" d="M275.49,100.59,249.62,87.81a2.59,2.59,0,0,1-1.23-2.16c0-.84.55-1.26,1.23-.92l25.87,12.78a2.62,2.62,0,0,1,1.23,2.16C276.72,100.52,276.17,100.93,275.49,100.59Z"></path><path class="cls-7" d="M275.49,111.14,249.62,98.31a2.59,2.59,0,0,1-1.23-2.15c0-.85.55-1.27,1.23-.93L275.49,108a2.59,2.59,0,0,1,1.23,2.15c0,.89-.55,1.31-1.23,1Zm0,10.86-25.87-12.78a2.62,2.62,0,0,1-1.23-2.16c0-.85.55-1.26,1.23-.92l25.87,12.78a2.59,2.59,0,0,1,1.23,2.15C276.72,121.92,276.17,122.35,275.49,122Z"></path><path class="cls-6" d="M291.69,148.59,249.62,127.8a2.53,2.53,0,0,1-1.23-2.14c0-.86.55-1.27,1.23-.92l42.07,20.79a2.57,2.57,0,0,1,1.25,2.15c0,.85-.56,1.27-1.23.93Z"></path><path id="C-2" data-name="C" class="cls-7" d="M275.49,151.64l-25.87-12.78a2.59,2.59,0,0,1-1.23-2.16c0-.84.55-1.26,1.23-.92l25.87,12.78a2.62,2.62,0,0,1,1.23,2.16C276.72,151.57,276.17,152,275.49,151.64Z"></path><path id="C-3" data-name="C" class="cls-7" d="M275.49,162.15l-25.87-12.79a2.59,2.59,0,0,1-1.23-2.15c0-.85.55-1.27,1.23-.93l25.87,12.79a2.59,2.59,0,0,1,1.23,2.15C276.72,162.07,276.17,162.48,275.49,162.15Z"></path><path class="cls-7" d="M275.49,172.6l-25.87-12.69a2.59,2.59,0,0,1-1.23-2.15c0-.85.55-1.27,1.23-.93l25.87,12.78a2.62,2.62,0,0,1,1.23,2.16c0,.77-.55,1.19-1.23.85Zm16.2,53.28-42.07-20.79a2.59,2.59,0,0,1-1.23-2.15c0-.85.55-1.26,1.23-.92l42.07,20.78a2.6,2.6,0,0,1,1.25,2.16c0,.85-.56,1.26-1.23.92Z"></path><path id="B-2" data-name="B" class="cls-8" d="M291.69,214.43l-42.07-20.79a2.58,2.58,0,0,1-1.23-2.14c0-.87.55-1.28,1.23-.93l42.07,20.79a2.59,2.59,0,0,1,1.25,2.16c0,.85-.56,1.26-1.23.92Z"></path><path id="B-3" data-name="B" class="cls-8" d="M291.69,203.39,249.62,182.6a2.58,2.58,0,0,1-1.23-2.14c0-.87.55-1.28,1.23-.93l42.07,20.79a2.57,2.57,0,0,1,1.25,2.16c0,.84-.56,1.26-1.23.92Z"></path><path class="cls-7" d="M291.69,236.33l-42.07-20.79a2.59,2.59,0,0,1-1.23-2.16c0-.85.55-1.26,1.23-.92l42.07,20.79a2.52,2.52,0,0,1,1.26,2.12C293,236.25,292.38,236.66,291.69,236.33Zm-16.2,2.43L249.62,226a2.58,2.58,0,0,1-1.23-2.14c0-.87.55-1.28,1.23-.93l25.87,12.78a2.59,2.59,0,0,1,1.23,2.16c0,.85-.55,1.26-1.23.92Z"></path><path class="cls-8" d="M474.93,177.62l-42.09-20.79a2.58,2.58,0,0,1-1.23-2.14c0-.86.56-1.28,1.23-.92l42.09,20.79a2.56,2.56,0,0,1,1.23,2.15c0,.87-.55,1.28-1.23.93Zm0,10.47L432.84,167.3a2.61,2.61,0,0,1-1.23-2.15c0-.85.56-1.26,1.23-.93L474.93,185a2.59,2.59,0,0,1,1.23,2.16C476.21,188,475.61,188.43,474.93,188.09Z"></path><path id="C-4" data-name="C" class="cls-7" d="M458.72,190.53l-25.88-12.78a2.64,2.64,0,0,1-1.23-2.16c0-.85.56-1.26,1.23-.92l25.88,12.78A2.59,2.59,0,0,1,460,189.6C460,190.45,459.39,190.87,458.72,190.53Z"></path><path id="C-5" data-name="C" class="cls-7" d="M458.72,200.77,432.84,188a2.64,2.64,0,0,1-1.23-2.16c0-.85.56-1.26,1.23-.92l25.88,12.78a2.59,2.59,0,0,1,1.23,2.15C460,200.69,459.39,201.11,458.72,200.77Z"></path><path id="C-6" data-name="C" class="cls-7" d="M458.72,211.62l-25.88-12.78a2.61,2.61,0,0,1-1.23-2.15c0-.85.56-1.27,1.23-.93l25.88,12.78A2.62,2.62,0,0,1,460,210.7C460,211.55,459.39,212,458.72,211.62Z"></path><path class="cls-6" d="M475.39,297l-42.07-20.79a2.58,2.58,0,0,1-1.25-2.14c0-.86.56-1.28,1.24-.92l42.07,20.79a2.56,2.56,0,0,1,1.23,2.14c0,.83-.55,1.23-1.23.92Zm0-10.47-42.07-20.79a2.58,2.58,0,0,1-1.25-2.14c0-.86.56-1.28,1.24-.93l42.07,20.79a2.62,2.62,0,0,1,1.23,2.16c0,.85-.55,1.26-1.23.92Z"></path><path class="cls-7" d="M475.39,307.38l-42.07-20.79a2.59,2.59,0,0,1-1.25-2.16c0-.84.56-1.27,1.24-.92l42.07,20.79a2.59,2.59,0,0,1,1.23,2.16c0,.84-.55,1.29-1.23.92Zm-16.21,2.43L433.31,297a2.57,2.57,0,0,1-1.25-2.15c0-.85.55-1.27,1.23-.93l25.87,12.78a2.59,2.59,0,0,1,1.25,2.16C460.41,309.74,459.86,310.15,459.18,309.81Zm0,11.46-25.87-12.78a2.55,2.55,0,0,1-1.25-2.14c0-.86.55-1.28,1.23-.93l25.87,12.79a2.55,2.55,0,0,1,1.25,2.14C460.41,321.21,459.86,321.62,459.18,321.27Zm0,10.26-25.87-12.79a2.53,2.53,0,0,1-1.25-2.15c0-.85.55-1.26,1.23-.93l25.87,12.79a2.55,2.55,0,0,1,1.25,2.14c0,.86-.55,1.28-1.23.92Z"></path><path class="cls-9" d="M341.62,159.23a1.76,1.76,0,0,1-.63-.52l-40.55-49.62a2.74,2.74,0,0,1-.6-1.63V86.61c0-.85.55-1.26,1.23-.92a2.56,2.56,0,0,1,1.23,2.15v20l39.93,48.82a2.22,2.22,0,0,1,.45,2.32.75.75,0,0,1-1,.26l0,0Zm-41.46,93.94a2.53,2.53,0,0,1-1.23-2.14v-20.9a1,1,0,0,1,.48-1l32.41-15.39c.54-.27,1.33.24,1.74,1.12s.31,1.8-.23,2.05L301.39,232v20.28c0,.77-.55,1.19-1.23.85Zm31.51-56.95-.36-.23-30.64-26.33a2.68,2.68,0,0,1-.88-1.91V146.82c0-.84.56-1.26,1.23-.92a2.58,2.58,0,0,1,1.24,2.14v19.74L332,193.35a2.56,2.56,0,0,1,.83,2.32.77.77,0,0,1-.91.6.65.65,0,0,1-.22-.08Zm49.43-13.75a2.4,2.4,0,0,1-1-1.17c-.39-.89-.25-1.78.3-2l33.45-12.57v-20c0-.86.56-1.27,1.23-.92a2.59,2.59,0,0,1,1.25,2.16v20.88a1,1,0,0,1-.54,1l-34,12.75a.86.86,0,0,1-.71-.13Zm34,126.54a2.56,2.56,0,0,1-1.23-2.14v-40.7l-33.48-47.74a2.06,2.06,0,0,1-.24-2.29c.4-.47,1.18-.23,1.72.55l34,48.42a2.57,2.57,0,0,1,.51,1.54V308.1c0,.84-.55,1.19-1.23.93Z"></path><path class="cls-10" d="M399.49,283.29l-46.63-23.74v-113l46.63,23.78v113Z"></path><path class="cls-11" d="M395.78,260.07l-42.92-21.93v-1.29l42.92,21.91,0,1.3Z"></path><path id="D" class="cls-11" d="M395.78,247.38l-42.92-21.91v-1.29l42.92,21.91,0,1.29Z"></path><path id="D-2" data-name="D" class="cls-11" d="M395.78,234.71l-42.92-21.92V211.5l42.92,21.92,0,1.29Z"></path><path class="cls-11" d="M395.78,222l-42.92-21.92v-1.3l42.92,21.92,0,1.29Z"></path><path id="D-3" data-name="D" class="cls-11" d="M395.78,209.35l-42.92-21.92v-1.29l42.92,21.91,0,1.3Z"></path><path id="D-4" data-name="D" class="cls-11" d="M395.78,196.67l-42.92-21.91v-1.3l42.92,21.92,0,1.29Z"></path><path class="cls-11" d="M395.78,183.67l-42.92-21.91v-1.29l42.92,21.91,0,1.29Z"></path><path class="cls-12" d="M357.94,262.58l-38.62-19.4V103.86l38.62,19.4V262.57Z"></path><path class="cls-13" d="M357.94,153.4,319.32,134V122.52l38.62,19.41V153.4Zm0,21.37-38.62-19.4V143.9l38.62,19.4v11.46Zm0,21.41-38.62-19.41V165.32l38.62,19.4v11.47Zm0,21.37-38.62-19.4V186.69l38.62,19.42v11.44Zm0,21.36-38.62-19.4V208l38.62,19.4Z"></path><path class="cls-14" d="M371.86,269.71l-31.64-16V160.19l31.64,16v93.5Z"></path><path class="cls-15" d="M346.19,256.7l-1.85-.88V173.4l1.85.88V256.7Zm6.31,3.13-1.84-.88V176.56l1.84.88v82.39Zm6.87,3.41-1.85-.87V179.93l1.85.86v82.44Zm6.73,3.45-1.85-.87V183.4l1.85.86v82.43Z"></path><path class="cls-16" d="M460.81,105.43l-25.67,56.51a9.91,9.91,0,0,0,3.77,13.51l.46.25,59.76,37.14c2,1,9.24-3.54,10.78-4,5-1.23,7.85-7.92,5.57-14.23l-30.8-85c-2.31-6.73-9.78-11.49-14.63-8.39-.86.58-8.52,3-9.24,4.15Z"></path><path class="cls-14" d="M459,107.68l-32.52,58a9.93,9.93,0,0,0,3.79,13.51l.45.23,65.06,32.42c8,4,14.17-5,11.12-13.48l-30.8-85c-3-8-12.94-13.2-17.1-5.76Z"></path><path class="cls-7" d="M467.86,177.1a7.88,7.88,0,0,1,1.47,4.34,3.06,3.06,0,0,1-1.47,2.94,3.6,3.6,0,0,1-3.4-.09,8.53,8.53,0,0,1-3.39-3.08,7.69,7.69,0,0,1-1.54-4.33,3.06,3.06,0,0,1,1.54-2.95,3.58,3.58,0,0,1,3.39.1A8.6,8.6,0,0,1,467.86,177.1Zm-.77-43.68-1.31,32-2.64-1.23-1.42-33.27c0-4.21-.46-6.43,2.69-5s2.68,3.28,2.68,7.48Z"></path><path class="cls-4" d="M237.11,140.66a55.06,55.06,0,1,1,55.07,55h0A55.1,55.1,0,0,1,237.11,140.66Zm100.78,0a45.74,45.74,0,1,0-45.75,45.72h0A45.77,45.77,0,0,0,337.89,140.66Z"></path><path class="cls-4" d="M197.32,222.31a4.58,4.58,0,0,1,1.36-3.29l50.54-50.55a4.66,4.66,0,0,1,6.59,6.6l-50.54,50.54a4.63,4.63,0,0,1-8-3.3Z"></path></svg> 